<svg width="220" height="48" viewBox="0 0 220 48" fill="none" xmlns="http://www.w3.org/2000/svg">
<path d="M11.1235 9.90184C15.1609 9.90184 18.2096 10.6445 20.352 12.2123C22.4943 13.6976 23.5654 16.0081 23.5654 18.9787C23.5654 20.629 23.2359 22.0318 22.6591 23.2695C22.0823 24.4248 21.2583 25.3325 20.1048 26.0751C19.0336 26.8178 17.6329 27.3129 16.0673 27.6429C14.5018 27.973 12.689 28.138 10.7115 28.138H7.49803V38.7827H3.54297V10.6445C4.69653 10.3969 5.93248 10.1494 7.33323 10.0669C8.73398 9.98436 9.96994 9.90184 11.1235 9.90184ZM11.4531 13.3675C9.72274 13.3675 8.48679 13.3675 7.49803 13.4501V24.7548H10.5467C11.9475 24.7548 13.1834 24.6723 14.2546 24.5073C15.3257 24.3423 16.3145 24.0122 17.0561 23.5996C17.7977 23.187 18.3744 22.6094 18.7864 21.8668C19.1984 21.1241 19.4456 20.1339 19.4456 18.9787C19.4456 17.906 19.1984 16.9983 18.7864 16.2556C18.3744 15.513 17.7977 14.9354 17.0561 14.5228C16.3145 14.1102 15.4905 13.7801 14.5842 13.6151C13.513 13.5326 12.5242 13.3675 11.4531 13.3675ZM42.5992 26.8178C43.0111 27.3954 43.5879 28.0555 44.2471 29.0457C44.9063 29.9534 45.6478 30.9436 46.307 32.0163C47.0486 33.089 47.7078 34.2443 48.4493 35.3995C49.1909 36.5547 49.7677 37.7099 50.2621 38.8652H45.895C45.3183 37.7925 44.7415 36.8023 44.0823 35.7295C43.4231 34.6568 42.8463 33.6666 42.1872 32.6764C41.528 31.6862 40.8688 30.7786 40.2096 29.8709C39.5505 29.0457 38.9737 28.3031 38.4793 27.6429C38.1497 27.6429 37.7377 27.6429 37.4081 27.6429C37.0786 27.6429 36.6666 27.6429 36.2546 27.6429H32.7115V38.7827H28.6741V10.6445C29.8276 10.3969 31.0636 10.1494 32.4643 10.0669C33.8651 9.98436 35.101 9.90184 36.2546 9.90184C40.292 9.90184 43.3407 10.6445 45.4007 12.2123C47.543 13.6976 48.5317 16.0081 48.5317 18.9787C48.5317 20.8766 48.0374 22.5269 47.0486 23.8472C45.9774 25.1674 44.4943 26.1576 42.5992 26.8178ZM36.5018 13.3675C34.7714 13.3675 33.4531 13.3675 32.5467 13.4501V24.2597H35.4306C36.8314 24.2597 38.0673 24.1772 39.1385 24.0947C40.2096 23.9297 41.116 23.6821 41.8576 23.2695C42.5992 22.857 43.2583 22.3619 43.6703 21.6192C44.0823 20.8766 44.3295 19.9689 44.3295 18.8136C44.3295 17.7409 44.1647 16.8332 43.6703 16.1731C43.2583 15.4305 42.6815 14.9354 41.94 14.5228C41.2808 14.1102 40.4568 13.7801 39.4681 13.6151C38.5617 13.5326 37.5729 13.3675 36.5018 13.3675ZM52.8988 24.4248C52.8988 21.9493 53.2284 19.8038 53.9699 17.906C54.7115 16.0081 55.7003 14.5228 56.9362 13.285C58.1722 12.0473 59.6553 11.0571 61.3033 10.4795C62.9512 9.81933 64.7639 9.57178 66.5767 9.57178C68.3894 9.57178 70.1198 9.90184 71.7677 10.4795C73.4156 11.1396 74.8988 12.0473 76.0523 13.285C77.2883 14.5228 78.2771 16.0906 79.0186 17.906C79.7602 19.8038 80.0898 21.9493 80.0898 24.4248C80.0898 26.9003 79.6778 29.0457 79.0186 30.9436C78.2771 32.8415 77.2883 34.4093 76.0523 35.647C74.8164 36.8848 73.4156 37.7925 71.7677 38.4526C70.1198 39.1127 68.3894 39.4428 66.5767 39.4428C64.6815 39.4428 62.9512 39.1127 61.3033 38.4526C59.6553 37.7925 58.1722 36.8848 56.9362 35.647C55.7003 34.4093 54.7115 32.8415 53.9699 30.9436C53.3108 29.0457 52.8988 26.9003 52.8988 24.4248ZM57.101 24.4248C57.101 26.1576 57.3482 27.7254 57.7602 29.2107C58.1722 30.6135 58.8314 31.7688 59.5729 32.759C60.3969 33.7492 61.3857 34.4918 62.5392 35.0694C63.6928 35.5645 65.0111 35.8946 66.4943 35.8946C67.9774 35.8946 69.2134 35.647 70.4493 35.0694C71.6029 34.4918 72.5917 33.7492 73.4156 32.759C74.2396 31.7688 74.8988 30.531 75.3108 29.2107C75.7227 27.808 75.9699 26.1576 75.9699 24.4248C75.9699 22.6919 75.7227 21.1241 75.3108 19.7213C74.8988 18.3185 74.2396 17.0808 73.4156 16.0906C72.5917 15.1004 71.6029 14.3577 70.4493 13.7801C69.2958 13.2025 67.9774 12.955 66.4943 12.955C65.0111 12.955 63.6928 13.2025 62.5392 13.7801C61.3857 14.2752 60.3969 15.1004 59.5729 16.0906C58.749 17.0808 58.1722 18.3185 57.7602 19.7213C57.3482 21.1241 57.101 22.6919 57.101 24.4248ZM109.588 24.4248C109.588 26.9003 109.176 29.0457 108.434 30.9436C107.693 32.759 106.622 34.2443 105.221 35.482C103.82 36.6372 102.172 37.5449 100.195 38.1225C98.2171 38.7001 96.0748 38.9477 93.7677 38.9477C92.6141 38.9477 91.2958 38.8652 89.895 38.7827C88.4943 38.7002 87.2583 38.5351 86.1048 38.2876V10.6445C87.2583 10.3969 88.4943 10.1494 89.895 10.0669C91.2958 9.98436 92.5317 9.90184 93.7677 9.90184C96.0748 9.90184 98.2171 10.2319 100.195 10.8095C102.172 11.3871 103.82 12.2948 105.221 13.4501C106.622 14.6053 107.693 16.1731 108.434 17.9885C109.176 19.8038 109.588 21.9493 109.588 24.4248ZM94.0149 35.482C97.8051 35.482 100.607 34.4918 102.502 32.5939C104.397 30.6135 105.303 27.8905 105.303 24.4248C105.303 20.9591 104.397 18.236 102.502 16.2556C100.607 14.2752 97.8051 13.3675 94.0149 13.3675C92.8613 13.3675 92.0374 13.3675 91.3782 13.3675C90.8014 13.3675 90.3894 13.4501 90.0598 13.4501V35.317C90.307 35.317 90.719 35.3995 91.3782 35.3995C92.0374 35.482 92.9437 35.482 94.0149 35.482ZM128.292 34.8219C128.045 34.1617 127.633 33.3366 127.221 32.3464C126.809 31.3562 126.315 30.2009 125.738 29.0457C125.243 27.8905 124.667 26.6527 124.007 25.415C123.431 24.1772 122.854 22.9395 122.359 21.8668C121.865 20.7115 121.371 19.7213 120.876 18.8136C120.464 17.906 120.052 17.2458 119.805 16.8332C119.476 20.0514 119.228 23.5996 119.064 27.3954C118.899 31.1911 118.734 34.9869 118.569 38.7827H114.614C114.697 36.3072 114.861 33.8317 114.944 31.3562C115.109 28.7982 115.273 26.3227 115.438 23.9297C115.603 21.4542 115.85 19.0612 116.015 16.7507C116.262 14.4403 116.509 12.2948 116.756 10.2319H120.217C120.959 11.4697 121.783 12.8724 122.607 14.5228C123.431 16.1731 124.337 17.906 125.161 19.7213C125.985 21.5367 126.809 23.3521 127.633 25.0849C128.457 26.9003 129.198 28.4681 129.775 29.9534C130.434 28.4681 131.176 26.8178 132 25.0849C132.824 23.2695 133.648 21.4542 134.472 19.7213C135.296 17.906 136.202 16.1731 137.026 14.5228C137.85 12.8724 138.674 11.4697 139.416 10.2319H142.876C143.783 19.4738 144.524 28.9632 145.019 38.8652H141.064C140.899 34.9869 140.734 31.1911 140.569 27.4779C140.404 23.6821 140.157 20.1339 139.828 16.9158C139.58 17.4109 139.168 18.071 138.674 18.8962C138.262 19.8038 137.768 20.794 137.191 21.9493C136.697 23.022 136.12 24.2597 135.461 25.4975C134.884 26.7352 134.307 27.973 133.813 29.1282C133.318 30.2835 132.824 31.4387 132.329 32.4289C131.918 33.4191 131.506 34.2442 131.258 34.9044H128.292V34.8219Z" fill="#2A6FDB"/>
<path d="M178.143 22.4445H169.738V14.0278H167.596V24.59H178.143V22.4445Z" fill="#48D6D2"/>
<path d="M168.668 40.5984C178.061 40.5984 185.724 32.9244 185.724 23.5175C185.724 14.1106 178.061 6.43652 168.668 6.43652C159.274 6.43652 151.611 14.1106 151.611 23.5175C151.611 32.9244 159.274 40.5984 168.668 40.5984ZM168.668 8.66447C176.825 8.66447 183.499 15.3483 183.499 23.5175C183.499 31.6866 176.825 38.3705 168.668 38.3705C160.51 38.3705 153.836 31.6866 153.836 23.5175C153.836 15.3483 160.428 8.66447 168.668 8.66447Z" fill="#2A6FDB"/>
<path d="M212.089 38.7827C211.513 37.7925 210.771 36.6373 209.947 35.317C209.205 34.0792 208.382 32.759 207.475 31.3562C206.569 29.9534 205.662 28.6331 204.591 27.2304C203.602 25.8276 202.696 24.5073 201.707 23.187C200.719 21.8668 199.812 20.629 198.906 19.4738C197.999 18.3186 197.176 17.3284 196.352 16.4207V38.7002H192.396V10.2319H195.61C196.928 11.6347 198.247 13.2025 199.73 15.1004C201.213 16.9158 202.696 18.8137 204.097 20.7115C205.58 22.6094 206.898 24.5073 208.134 26.4052C209.453 28.3031 210.524 29.9534 211.348 31.3562V10.2319H215.303V38.7827H212.089Z" fill="#2A6FDB"/>
</svg>
